<mxfile host="app.diagrams.net" modified="2022-11-13T15:13:30.091Z" agent="5.0 (Macintosh; Intel Mac OS X 10_15_7) AppleWebKit/605.1.15 (KHTML, like Gecko) Version/16.1 Safari/605.1.15" etag="BDhM9kRAQFYZTSsju4rD" version="20.5.3" type="github">
  <diagram id="4zEKoaxB69aD0g0_T0fx" name="Page-1">
    <mxGraphModel dx="2532" dy="1262" grid="1" gridSize="10" guides="1" tooltips="1" connect="1" arrows="1" fold="1" page="1" pageScale="1" pageWidth="827" pageHeight="1169" math="0" shadow="0">
      <root>
        <mxCell id="0" />
        <mxCell id="1" parent="0" />
        <mxCell id="R-Y8MWszhzgwBkSyDQ3W-48" style="edgeStyle=orthogonalEdgeStyle;rounded=0;orthogonalLoop=1;jettySize=auto;html=1;exitX=0.5;exitY=1;exitDx=0;exitDy=0;" edge="1" parent="1" source="R-Y8MWszhzgwBkSyDQ3W-2" target="R-Y8MWszhzgwBkSyDQ3W-9">
          <mxGeometry relative="1" as="geometry" />
        </mxCell>
        <mxCell id="R-Y8MWszhzgwBkSyDQ3W-2" value="GameBoard initialised" style="rounded=1;whiteSpace=wrap;html=1;" vertex="1" parent="1">
          <mxGeometry x="110" y="40" width="130" height="50" as="geometry" />
        </mxCell>
        <mxCell id="R-Y8MWszhzgwBkSyDQ3W-101" style="edgeStyle=orthogonalEdgeStyle;rounded=0;orthogonalLoop=1;jettySize=auto;html=1;exitX=1;exitY=0.5;exitDx=0;exitDy=0;entryX=0;entryY=0.5;entryDx=0;entryDy=0;" edge="1" parent="1" source="R-Y8MWszhzgwBkSyDQ3W-5" target="R-Y8MWszhzgwBkSyDQ3W-7">
          <mxGeometry relative="1" as="geometry" />
        </mxCell>
        <mxCell id="R-Y8MWszhzgwBkSyDQ3W-5" value="EnemyTurn" style="rounded=1;whiteSpace=wrap;html=1;" vertex="1" parent="1">
          <mxGeometry x="115" y="440" width="120" height="50" as="geometry" />
        </mxCell>
        <mxCell id="R-Y8MWszhzgwBkSyDQ3W-33" style="edgeStyle=orthogonalEdgeStyle;rounded=0;orthogonalLoop=1;jettySize=auto;html=1;exitX=1;exitY=0.5;exitDx=0;exitDy=0;entryX=0;entryY=0.5;entryDx=0;entryDy=0;" edge="1" parent="1" source="R-Y8MWszhzgwBkSyDQ3W-6" target="R-Y8MWszhzgwBkSyDQ3W-31">
          <mxGeometry relative="1" as="geometry" />
        </mxCell>
        <mxCell id="R-Y8MWszhzgwBkSyDQ3W-70" style="edgeStyle=orthogonalEdgeStyle;rounded=0;orthogonalLoop=1;jettySize=auto;html=1;exitX=0;exitY=0.5;exitDx=0;exitDy=0;entryX=0;entryY=0.5;entryDx=0;entryDy=0;" edge="1" parent="1" source="R-Y8MWszhzgwBkSyDQ3W-6" target="R-Y8MWszhzgwBkSyDQ3W-5">
          <mxGeometry relative="1" as="geometry">
            <Array as="points">
              <mxPoint x="110" y="300" />
              <mxPoint x="90" y="300" />
              <mxPoint x="90" y="465" />
            </Array>
          </mxGeometry>
        </mxCell>
        <mxCell id="R-Y8MWszhzgwBkSyDQ3W-6" value="TowerPlacing" style="rounded=1;whiteSpace=wrap;html=1;" vertex="1" parent="1">
          <mxGeometry x="110" y="270" width="130" height="50" as="geometry" />
        </mxCell>
        <mxCell id="R-Y8MWszhzgwBkSyDQ3W-14" value="" style="edgeStyle=orthogonalEdgeStyle;rounded=0;orthogonalLoop=1;jettySize=auto;html=1;" edge="1" parent="1" source="R-Y8MWszhzgwBkSyDQ3W-7" target="R-Y8MWszhzgwBkSyDQ3W-8">
          <mxGeometry relative="1" as="geometry" />
        </mxCell>
        <mxCell id="R-Y8MWszhzgwBkSyDQ3W-7" value="Enemy&amp;nbsp;" style="rounded=1;whiteSpace=wrap;html=1;" vertex="1" parent="1">
          <mxGeometry x="330" y="440" width="120" height="50" as="geometry" />
        </mxCell>
        <mxCell id="R-Y8MWszhzgwBkSyDQ3W-88" style="edgeStyle=orthogonalEdgeStyle;rounded=0;orthogonalLoop=1;jettySize=auto;html=1;exitX=1;exitY=0.5;exitDx=0;exitDy=0;entryX=0;entryY=0.5;entryDx=0;entryDy=0;" edge="1" parent="1" source="R-Y8MWszhzgwBkSyDQ3W-8" target="R-Y8MWszhzgwBkSyDQ3W-87">
          <mxGeometry relative="1" as="geometry" />
        </mxCell>
        <mxCell id="R-Y8MWszhzgwBkSyDQ3W-8" value="EndTiles" style="rounded=1;whiteSpace=wrap;html=1;" vertex="1" parent="1">
          <mxGeometry x="330" y="545" width="120" height="60" as="geometry" />
        </mxCell>
        <mxCell id="R-Y8MWszhzgwBkSyDQ3W-49" style="edgeStyle=orthogonalEdgeStyle;rounded=0;orthogonalLoop=1;jettySize=auto;html=1;exitX=0.5;exitY=1;exitDx=0;exitDy=0;" edge="1" parent="1" source="R-Y8MWszhzgwBkSyDQ3W-9" target="R-Y8MWszhzgwBkSyDQ3W-6">
          <mxGeometry relative="1" as="geometry" />
        </mxCell>
        <mxCell id="R-Y8MWszhzgwBkSyDQ3W-9" value="Start/End Positions" style="rounded=1;whiteSpace=wrap;html=1;" vertex="1" parent="1">
          <mxGeometry x="115" y="140" width="120" height="60" as="geometry" />
        </mxCell>
        <mxCell id="R-Y8MWszhzgwBkSyDQ3W-13" style="edgeStyle=orthogonalEdgeStyle;rounded=0;orthogonalLoop=1;jettySize=auto;html=1;exitX=1;exitY=0.5;exitDx=0;exitDy=0;entryX=0;entryY=0.5;entryDx=0;entryDy=0;" edge="1" parent="1" source="R-Y8MWszhzgwBkSyDQ3W-12" target="R-Y8MWszhzgwBkSyDQ3W-2">
          <mxGeometry relative="1" as="geometry" />
        </mxCell>
        <mxCell id="R-Y8MWszhzgwBkSyDQ3W-12" value="Start" style="text;html=1;strokeColor=none;fillColor=none;align=center;verticalAlign=middle;whiteSpace=wrap;rounded=0;" vertex="1" parent="1">
          <mxGeometry x="30" y="50" width="40" height="30" as="geometry" />
        </mxCell>
        <mxCell id="R-Y8MWszhzgwBkSyDQ3W-120" style="edgeStyle=orthogonalEdgeStyle;rounded=0;orthogonalLoop=1;jettySize=auto;html=1;exitX=1;exitY=0.5;exitDx=0;exitDy=0;entryX=0;entryY=0.5;entryDx=0;entryDy=0;" edge="1" parent="1" source="R-Y8MWszhzgwBkSyDQ3W-17" target="R-Y8MWszhzgwBkSyDQ3W-119">
          <mxGeometry relative="1" as="geometry" />
        </mxCell>
        <mxCell id="R-Y8MWszhzgwBkSyDQ3W-17" value="PlayerAddMoney" style="rounded=1;whiteSpace=wrap;html=1;" vertex="1" parent="1">
          <mxGeometry x="330" y="760" width="120" height="60" as="geometry" />
        </mxCell>
        <mxCell id="R-Y8MWszhzgwBkSyDQ3W-121" style="edgeStyle=orthogonalEdgeStyle;rounded=0;orthogonalLoop=1;jettySize=auto;html=1;exitX=0.5;exitY=1;exitDx=0;exitDy=0;entryX=0.5;entryY=0;entryDx=0;entryDy=0;" edge="1" parent="1" source="R-Y8MWszhzgwBkSyDQ3W-19" target="R-Y8MWszhzgwBkSyDQ3W-119">
          <mxGeometry relative="1" as="geometry" />
        </mxCell>
        <mxCell id="R-Y8MWszhzgwBkSyDQ3W-19" value="PlayerHP reduced" style="rounded=1;whiteSpace=wrap;html=1;" vertex="1" parent="1">
          <mxGeometry x="610" y="545" width="120" height="60" as="geometry" />
        </mxCell>
        <mxCell id="R-Y8MWszhzgwBkSyDQ3W-132" style="edgeStyle=orthogonalEdgeStyle;rounded=0;orthogonalLoop=1;jettySize=auto;html=1;exitX=0;exitY=0.5;exitDx=0;exitDy=0;entryX=1;entryY=0.5;entryDx=0;entryDy=0;" edge="1" parent="1" source="R-Y8MWszhzgwBkSyDQ3W-23" target="R-Y8MWszhzgwBkSyDQ3W-53">
          <mxGeometry relative="1" as="geometry" />
        </mxCell>
        <mxCell id="R-Y8MWszhzgwBkSyDQ3W-23" value="PlayerIsDead" style="rounded=1;whiteSpace=wrap;html=1;" vertex="1" parent="1">
          <mxGeometry x="330" y="960" width="120" height="60" as="geometry" />
        </mxCell>
        <mxCell id="R-Y8MWszhzgwBkSyDQ3W-26" value="PlayerTurn" style="text;html=1;strokeColor=none;fillColor=none;align=center;verticalAlign=middle;whiteSpace=wrap;rounded=0;" vertex="1" parent="1">
          <mxGeometry x="180" y="210" width="60" height="30" as="geometry" />
        </mxCell>
        <mxCell id="R-Y8MWszhzgwBkSyDQ3W-28" value="Money â‰¥ TowerPrice" style="text;html=1;strokeColor=none;fillColor=none;align=center;verticalAlign=middle;whiteSpace=wrap;rounded=0;" vertex="1" parent="1">
          <mxGeometry x="380" y="400" width="130" height="30" as="geometry" />
        </mxCell>
        <mxCell id="R-Y8MWszhzgwBkSyDQ3W-63" style="edgeStyle=orthogonalEdgeStyle;rounded=0;orthogonalLoop=1;jettySize=auto;html=1;exitX=1;exitY=0.5;exitDx=0;exitDy=0;entryX=0.5;entryY=0;entryDx=0;entryDy=0;" edge="1" parent="1" source="R-Y8MWszhzgwBkSyDQ3W-30" target="R-Y8MWszhzgwBkSyDQ3W-62">
          <mxGeometry relative="1" as="geometry" />
        </mxCell>
        <mxCell id="R-Y8MWszhzgwBkSyDQ3W-30" value="PlaceOnTile" style="rounded=1;whiteSpace=wrap;html=1;" vertex="1" parent="1">
          <mxGeometry x="320" y="210" width="120" height="50" as="geometry" />
        </mxCell>
        <mxCell id="R-Y8MWszhzgwBkSyDQ3W-34" style="edgeStyle=orthogonalEdgeStyle;rounded=0;orthogonalLoop=1;jettySize=auto;html=1;exitX=0.5;exitY=0;exitDx=0;exitDy=0;entryX=0;entryY=0.5;entryDx=0;entryDy=0;" edge="1" parent="1" source="R-Y8MWszhzgwBkSyDQ3W-31" target="R-Y8MWszhzgwBkSyDQ3W-30">
          <mxGeometry relative="1" as="geometry" />
        </mxCell>
        <mxCell id="R-Y8MWszhzgwBkSyDQ3W-37" style="edgeStyle=orthogonalEdgeStyle;rounded=0;orthogonalLoop=1;jettySize=auto;html=1;exitX=0.5;exitY=1;exitDx=0;exitDy=0;entryX=0;entryY=0.5;entryDx=0;entryDy=0;" edge="1" parent="1" source="R-Y8MWszhzgwBkSyDQ3W-31" target="R-Y8MWszhzgwBkSyDQ3W-36">
          <mxGeometry relative="1" as="geometry" />
        </mxCell>
        <mxCell id="R-Y8MWszhzgwBkSyDQ3W-31" value="" style="rhombus;whiteSpace=wrap;html=1;rounded=1;" vertex="1" parent="1">
          <mxGeometry x="270" y="285" width="20" height="20" as="geometry" />
        </mxCell>
        <mxCell id="R-Y8MWszhzgwBkSyDQ3W-35" value="setTower = false" style="text;html=1;strokeColor=none;fillColor=none;align=center;verticalAlign=middle;whiteSpace=wrap;rounded=0;" vertex="1" parent="1">
          <mxGeometry x="280" y="255" width="100" height="30" as="geometry" />
        </mxCell>
        <mxCell id="R-Y8MWszhzgwBkSyDQ3W-64" style="edgeStyle=orthogonalEdgeStyle;rounded=0;orthogonalLoop=1;jettySize=auto;html=1;exitX=1;exitY=0.5;exitDx=0;exitDy=0;entryX=0.5;entryY=1;entryDx=0;entryDy=0;" edge="1" parent="1" source="R-Y8MWszhzgwBkSyDQ3W-36" target="R-Y8MWszhzgwBkSyDQ3W-62">
          <mxGeometry relative="1" as="geometry" />
        </mxCell>
        <mxCell id="R-Y8MWszhzgwBkSyDQ3W-36" value="PlacingBlocked" style="rounded=1;whiteSpace=wrap;html=1;" vertex="1" parent="1">
          <mxGeometry x="320" y="330" width="120" height="50" as="geometry" />
        </mxCell>
        <mxCell id="R-Y8MWszhzgwBkSyDQ3W-38" value="IsBlocked || setTower" style="text;html=1;strokeColor=none;fillColor=none;align=center;verticalAlign=middle;whiteSpace=wrap;rounded=0;" vertex="1" parent="1">
          <mxGeometry x="280" y="300" width="130" height="30" as="geometry" />
        </mxCell>
        <mxCell id="R-Y8MWszhzgwBkSyDQ3W-44" value="WaveSpawned" style="text;html=1;strokeColor=none;fillColor=none;align=center;verticalAlign=middle;whiteSpace=wrap;rounded=0;" vertex="1" parent="1">
          <mxGeometry x="250" y="430" width="60" height="30" as="geometry" />
        </mxCell>
        <mxCell id="R-Y8MWszhzgwBkSyDQ3W-142" style="edgeStyle=orthogonalEdgeStyle;rounded=0;orthogonalLoop=1;jettySize=auto;html=1;exitX=0.5;exitY=1;exitDx=0;exitDy=0;" edge="1" parent="1" source="R-Y8MWszhzgwBkSyDQ3W-53" target="R-Y8MWszhzgwBkSyDQ3W-141">
          <mxGeometry relative="1" as="geometry" />
        </mxCell>
        <mxCell id="R-Y8MWszhzgwBkSyDQ3W-53" value="Finished" style="rounded=1;whiteSpace=wrap;html=1;" vertex="1" parent="1">
          <mxGeometry x="110" y="960" width="120" height="60" as="geometry" />
        </mxCell>
        <mxCell id="R-Y8MWszhzgwBkSyDQ3W-60" value="generated" style="text;html=1;strokeColor=none;fillColor=none;align=center;verticalAlign=middle;whiteSpace=wrap;rounded=0;" vertex="1" parent="1">
          <mxGeometry x="180" y="100" width="60" height="30" as="geometry" />
        </mxCell>
        <mxCell id="R-Y8MWszhzgwBkSyDQ3W-67" style="edgeStyle=orthogonalEdgeStyle;rounded=0;orthogonalLoop=1;jettySize=auto;html=1;exitX=1;exitY=0.5;exitDx=0;exitDy=0;entryX=0;entryY=0.5;entryDx=0;entryDy=0;" edge="1" parent="1" source="R-Y8MWszhzgwBkSyDQ3W-62" target="R-Y8MWszhzgwBkSyDQ3W-65">
          <mxGeometry relative="1" as="geometry" />
        </mxCell>
        <mxCell id="R-Y8MWszhzgwBkSyDQ3W-62" value="" style="rhombus;whiteSpace=wrap;html=1;" vertex="1" parent="1">
          <mxGeometry x="490" y="290" width="20" height="20" as="geometry" />
        </mxCell>
        <mxCell id="R-Y8MWszhzgwBkSyDQ3W-69" style="edgeStyle=orthogonalEdgeStyle;rounded=0;orthogonalLoop=1;jettySize=auto;html=1;exitX=0.5;exitY=1;exitDx=0;exitDy=0;entryX=0.5;entryY=1;entryDx=0;entryDy=0;" edge="1" parent="1" source="R-Y8MWszhzgwBkSyDQ3W-65" target="R-Y8MWszhzgwBkSyDQ3W-6">
          <mxGeometry relative="1" as="geometry">
            <Array as="points">
              <mxPoint x="725" y="400" />
              <mxPoint x="175" y="400" />
            </Array>
          </mxGeometry>
        </mxCell>
        <mxCell id="R-Y8MWszhzgwBkSyDQ3W-65" value="PlayerMoneyReduced" style="rounded=1;whiteSpace=wrap;html=1;" vertex="1" parent="1">
          <mxGeometry x="650" y="270" width="150" height="60" as="geometry" />
        </mxCell>
        <mxCell id="R-Y8MWszhzgwBkSyDQ3W-68" value="TowerIsPlaced =True" style="text;html=1;strokeColor=none;fillColor=none;align=center;verticalAlign=middle;whiteSpace=wrap;rounded=0;" vertex="1" parent="1">
          <mxGeometry x="510" y="260" width="126" height="30" as="geometry" />
        </mxCell>
        <mxCell id="R-Y8MWszhzgwBkSyDQ3W-71" value="PlayerTurnTime = 0" style="text;html=1;strokeColor=none;fillColor=none;align=center;verticalAlign=middle;whiteSpace=wrap;rounded=0;" vertex="1" parent="1">
          <mxGeometry x="90" y="410" width="120" height="30" as="geometry" />
        </mxCell>
        <mxCell id="R-Y8MWszhzgwBkSyDQ3W-72" value="PathFinding" style="text;html=1;strokeColor=none;fillColor=none;align=center;verticalAlign=middle;whiteSpace=wrap;rounded=0;" vertex="1" parent="1">
          <mxGeometry x="400" y="490" width="60" height="30" as="geometry" />
        </mxCell>
        <mxCell id="R-Y8MWszhzgwBkSyDQ3W-75" value="EnemyReached" style="text;html=1;strokeColor=none;fillColor=none;align=center;verticalAlign=middle;whiteSpace=wrap;rounded=0;" vertex="1" parent="1">
          <mxGeometry x="524" y="545" width="60" height="30" as="geometry" />
        </mxCell>
        <mxCell id="R-Y8MWszhzgwBkSyDQ3W-93" style="edgeStyle=orthogonalEdgeStyle;rounded=0;orthogonalLoop=1;jettySize=auto;html=1;exitX=1;exitY=0.75;exitDx=0;exitDy=0;entryX=0.308;entryY=1;entryDx=0;entryDy=0;entryPerimeter=0;" edge="1" parent="1" source="R-Y8MWszhzgwBkSyDQ3W-85" target="R-Y8MWszhzgwBkSyDQ3W-19">
          <mxGeometry relative="1" as="geometry" />
        </mxCell>
        <mxCell id="R-Y8MWszhzgwBkSyDQ3W-96" style="edgeStyle=orthogonalEdgeStyle;rounded=0;orthogonalLoop=1;jettySize=auto;html=1;exitX=0.5;exitY=1;exitDx=0;exitDy=0;" edge="1" parent="1" source="R-Y8MWszhzgwBkSyDQ3W-85" target="R-Y8MWszhzgwBkSyDQ3W-17">
          <mxGeometry relative="1" as="geometry" />
        </mxCell>
        <mxCell id="R-Y8MWszhzgwBkSyDQ3W-85" value="EnemyHpReduced" style="rounded=1;whiteSpace=wrap;html=1;" vertex="1" parent="1">
          <mxGeometry x="330" y="630" width="120" height="60" as="geometry" />
        </mxCell>
        <mxCell id="R-Y8MWszhzgwBkSyDQ3W-90" style="edgeStyle=orthogonalEdgeStyle;rounded=0;orthogonalLoop=1;jettySize=auto;html=1;exitX=1;exitY=0.5;exitDx=0;exitDy=0;entryX=0;entryY=0.5;entryDx=0;entryDy=0;" edge="1" parent="1" source="R-Y8MWszhzgwBkSyDQ3W-87" target="R-Y8MWszhzgwBkSyDQ3W-19">
          <mxGeometry relative="1" as="geometry" />
        </mxCell>
        <mxCell id="R-Y8MWszhzgwBkSyDQ3W-91" style="edgeStyle=orthogonalEdgeStyle;rounded=0;orthogonalLoop=1;jettySize=auto;html=1;exitX=0.5;exitY=1;exitDx=0;exitDy=0;entryX=1;entryY=0.25;entryDx=0;entryDy=0;" edge="1" parent="1" source="R-Y8MWszhzgwBkSyDQ3W-87" target="R-Y8MWszhzgwBkSyDQ3W-85">
          <mxGeometry relative="1" as="geometry" />
        </mxCell>
        <mxCell id="R-Y8MWszhzgwBkSyDQ3W-87" value="" style="rhombus;whiteSpace=wrap;html=1;" vertex="1" parent="1">
          <mxGeometry x="490" y="565" width="20" height="20" as="geometry" />
        </mxCell>
        <mxCell id="R-Y8MWszhzgwBkSyDQ3W-92" value="IsInTowerRange" style="text;html=1;strokeColor=none;fillColor=none;align=center;verticalAlign=middle;whiteSpace=wrap;rounded=0;" vertex="1" parent="1">
          <mxGeometry x="520" y="600" width="60" height="30" as="geometry" />
        </mxCell>
        <mxCell id="R-Y8MWszhzgwBkSyDQ3W-94" value="EnemyIsDead" style="text;html=1;strokeColor=none;fillColor=none;align=center;verticalAlign=middle;whiteSpace=wrap;rounded=0;" vertex="1" parent="1">
          <mxGeometry x="410" y="710" width="60" height="30" as="geometry" />
        </mxCell>
        <mxCell id="R-Y8MWszhzgwBkSyDQ3W-97" value="EnemySurvived" style="text;html=1;strokeColor=none;fillColor=none;align=center;verticalAlign=middle;whiteSpace=wrap;rounded=0;" vertex="1" parent="1">
          <mxGeometry x="520" y="645" width="60" height="30" as="geometry" />
        </mxCell>
        <mxCell id="R-Y8MWszhzgwBkSyDQ3W-114" style="edgeStyle=orthogonalEdgeStyle;rounded=0;orthogonalLoop=1;jettySize=auto;html=1;exitX=0.5;exitY=1;exitDx=0;exitDy=0;entryX=1;entryY=0.5;entryDx=0;entryDy=0;" edge="1" parent="1" source="R-Y8MWszhzgwBkSyDQ3W-103" target="R-Y8MWszhzgwBkSyDQ3W-109">
          <mxGeometry relative="1" as="geometry" />
        </mxCell>
        <mxCell id="R-Y8MWszhzgwBkSyDQ3W-103" value="WavedFinishedCheck" style="rounded=1;whiteSpace=wrap;html=1;" vertex="1" parent="1">
          <mxGeometry x="630" y="760" width="140" height="60" as="geometry" />
        </mxCell>
        <mxCell id="R-Y8MWszhzgwBkSyDQ3W-125" style="edgeStyle=orthogonalEdgeStyle;rounded=0;orthogonalLoop=1;jettySize=auto;html=1;exitX=0.5;exitY=1;exitDx=0;exitDy=0;entryX=1;entryY=0.5;entryDx=0;entryDy=0;" edge="1" parent="1" source="R-Y8MWszhzgwBkSyDQ3W-109" target="R-Y8MWszhzgwBkSyDQ3W-23">
          <mxGeometry relative="1" as="geometry" />
        </mxCell>
        <mxCell id="R-Y8MWszhzgwBkSyDQ3W-133" style="edgeStyle=orthogonalEdgeStyle;rounded=0;orthogonalLoop=1;jettySize=auto;html=1;exitX=0;exitY=0.5;exitDx=0;exitDy=0;" edge="1" parent="1" source="R-Y8MWszhzgwBkSyDQ3W-109" target="R-Y8MWszhzgwBkSyDQ3W-131">
          <mxGeometry relative="1" as="geometry" />
        </mxCell>
        <mxCell id="R-Y8MWszhzgwBkSyDQ3W-109" value="" style="rhombus;whiteSpace=wrap;html=1;" vertex="1" parent="1">
          <mxGeometry x="544" y="870" width="20" height="20" as="geometry" />
        </mxCell>
        <mxCell id="R-Y8MWszhzgwBkSyDQ3W-117" value="PlayerHP &amp;nbsp;= 0" style="text;html=1;strokeColor=none;fillColor=none;align=center;verticalAlign=middle;whiteSpace=wrap;rounded=0;" vertex="1" parent="1">
          <mxGeometry x="564" y="920" width="80" height="30" as="geometry" />
        </mxCell>
        <mxCell id="R-Y8MWszhzgwBkSyDQ3W-122" style="edgeStyle=orthogonalEdgeStyle;rounded=0;orthogonalLoop=1;jettySize=auto;html=1;exitX=1;exitY=0.5;exitDx=0;exitDy=0;entryX=0;entryY=0.5;entryDx=0;entryDy=0;" edge="1" parent="1" source="R-Y8MWszhzgwBkSyDQ3W-119" target="R-Y8MWszhzgwBkSyDQ3W-103">
          <mxGeometry relative="1" as="geometry" />
        </mxCell>
        <mxCell id="R-Y8MWszhzgwBkSyDQ3W-119" value="" style="rhombus;whiteSpace=wrap;html=1;" vertex="1" parent="1">
          <mxGeometry x="510" y="780" width="20" height="20" as="geometry" />
        </mxCell>
        <mxCell id="R-Y8MWszhzgwBkSyDQ3W-123" value="WaveFinished" style="text;html=1;strokeColor=none;fillColor=none;align=center;verticalAlign=middle;whiteSpace=wrap;rounded=0;" vertex="1" parent="1">
          <mxGeometry x="540" y="750" width="60" height="30" as="geometry" />
        </mxCell>
        <mxCell id="R-Y8MWszhzgwBkSyDQ3W-139" style="edgeStyle=orthogonalEdgeStyle;rounded=0;orthogonalLoop=1;jettySize=auto;html=1;exitX=0;exitY=0.5;exitDx=0;exitDy=0;entryX=0;entryY=0.25;entryDx=0;entryDy=0;" edge="1" parent="1" source="R-Y8MWszhzgwBkSyDQ3W-131" target="R-Y8MWszhzgwBkSyDQ3W-6">
          <mxGeometry relative="1" as="geometry">
            <Array as="points">
              <mxPoint x="60" y="880" />
              <mxPoint x="60" y="283" />
            </Array>
          </mxGeometry>
        </mxCell>
        <mxCell id="R-Y8MWszhzgwBkSyDQ3W-131" value="PlayerSurvived" style="rounded=1;whiteSpace=wrap;html=1;" vertex="1" parent="1">
          <mxGeometry x="330" y="850" width="120" height="60" as="geometry" />
        </mxCell>
        <mxCell id="R-Y8MWszhzgwBkSyDQ3W-134" value="PlayerHP &amp;nbsp;&amp;gt; 0" style="text;html=1;strokeColor=none;fillColor=none;align=center;verticalAlign=middle;whiteSpace=wrap;rounded=0;" vertex="1" parent="1">
          <mxGeometry x="460" y="840" width="90" height="30" as="geometry" />
        </mxCell>
        <mxCell id="R-Y8MWszhzgwBkSyDQ3W-140" value="PlayerTurn" style="text;html=1;strokeColor=none;fillColor=none;align=center;verticalAlign=middle;whiteSpace=wrap;rounded=0;" vertex="1" parent="1">
          <mxGeometry x="250" y="840" width="60" height="30" as="geometry" />
        </mxCell>
        <mxCell id="R-Y8MWszhzgwBkSyDQ3W-141" value="End" style="text;html=1;align=center;verticalAlign=middle;resizable=0;points=[];autosize=1;strokeColor=none;fillColor=none;" vertex="1" parent="1">
          <mxGeometry x="150" y="1060" width="40" height="30" as="geometry" />
        </mxCell>
      </root>
    </mxGraphModel>
  </diagram>
</mxfile>
